<svg width="428" height="385" viewBox="0 0 428 385" fill="none" xmlns="http://www.w3.org/2000/svg">
<g clip-path="url(#clip0_1_2)">
<path d="M139 371C113.333 371 90.3333 365.333 70 354C50 342.333 34.1667 326.5 22.5 306.5C10.8333 286.167 5 263.167 5 237.5V19H52V236.5C52 254.833 55.8333 270.667 63.5 284C71.1667 297.333 81.5 307.667 94.5 315C107.833 322.333 122.667 326 139 326C156 326 170.833 322.333 183.5 315C196.5 307.667 206.667 297.333 214 284C221.667 270.667 225.5 255 225.5 237V19H273V238C273 263.667 267.167 286.5 255.5 306.5C243.833 326.5 228 342.333 208 354C188 365.333 165 371 139 371ZM381.809 371C372.475 371 364.642 367.833 358.309 361.5C352.309 354.833 349.309 347 349.309 338C349.309 328.667 352.309 321 358.309 315C364.642 308.667 372.475 305.5 381.809 305.5C391.142 305.5 398.809 308.667 404.809 315C411.142 321 414.309 328.667 414.309 338C414.309 347 411.142 354.833 404.809 361.5C398.809 367.833 391.142 371 381.809 371Z" fill="white"/>
</g>
<defs>
<clipPath id="clip0_1_2">
<rect width="428" height="385" fill="white"/>
</clipPath>
</defs>
</svg>
